# xmcd CD database file
#
# Track frame offsets:
#	150
#	22260
#	52826
#	71486
#	98180
#	120990
#	143993
#	156943
#	177533
#	200262
#	224390
#	244875
#	266987
#	285774
#	300794
#	318545
#
# Disc length: 4621 seconds
#
# Revision: 0
# Processed by: cddbd v1.5.2PL0 Copyright (c) Steve Scherf et al.
# Submitted via: CDex 1.51
#
DISCID=e6120b10
DTITLE=Ernie Carson and the Castle Jazz Band - WHERE'M I GONNA LIVE?
DYEAR=1994
DGENRE=Jazz
TTITLE0=That Ragtime Misntrel Band
TTITLE1=Gonna Get A Girl
TTITLE2=Lila
TTITLE3=Put 'em Down Blues
TTITLE4=It's The Girl
TTITLE5=Just Around The Corner
TTITLE6=Singapore Sorrows
TTITLE7=This Is The Missus
TTITLE8=That Beautiful Rag
TTITLE9=Where'm I Gonna Live?
TTITLE10=Whose Honey Are You?
TTITLE11=Say It With Liquor
TTITLE12=Silver Bell
TTITLE13=If The Rest Of The World Don't Want You
TTITLE14=At The Indian Cabaret
TTITLE15=Put ANother Log On The Fire
EXTD=YEAR: 1994
EXTT0=
EXTT1=
EXTT2=
EXTT3=
EXTT4=
EXTT5=
EXTT6=
EXTT7=
EXTT8=
EXTT9=
EXTT10=
EXTT11=
EXTT12=
EXTT13=
EXTT14=
EXTT15=
PLAYORDER=
